<?xml version="1.0" encoding="UTF-8"?>
<svg id="Layer_1" data-name="Layer 1" xmlns="http://www.w3.org/2000/svg" viewBox="0 0 500 500">
  <path d="m226.75,500H0C0,333.33,0,166.67,0,0c166.67,0,333.33,0,500,0,0,166.67,0,333.33,0,500-42,0-84,0-126,0-2.43-1.89-4.86-3.78-7.29-5.68-16.86-13.13-33.72-26.25-50.56-39.4-.44-.34-.84-.94-.94-1.49-3.18-16.15-6.3-32.3-9.49-48.45-.25-1.28.14-1.9,1.16-2.59,38.36-26.37,76.71-52.76,115.04-79.18.65-.45,1.23-1.13,1.58-1.83,10.67-21.27,21.32-42.56,31.93-63.86.41-.83.61-1.92.48-2.83-1.45-9.7-2.98-19.39-4.5-29.09-2.3-14.66-4.61-29.32-6.9-43.98-2.25-14.38-4.48-28.75-6.74-43.13-.14-.9.05-1.51.82-2.12,18.94-14.99,37.86-30.01,56.79-45.03,1.35-1.07,2.7-2.16,4.15-3.32-.49-.25-.82-.43-1.15-.58-24.87-11.52-49.73-23.05-74.61-34.54-.61-.28-1.48-.36-2.13-.18-22.9,6.36-45.79,12.77-68.69,19.15-.79.22-1.26.61-1.61,1.36-11.46,24.53-22.94,49.05-34.39,73.58-.43.92-.7,1.95-.87,2.96-1.47,8.81-2.9,17.64-4.35,26.46-1.72,10.5-3.46,21-5.16,31.51-.14.89-.43,1.27-1.41,1.3-3.66.1-7.32.3-10.98.45-11.98.51-23.96,1-35.93,1.51-7.65.32-15.3.67-22.96.98-1.61.06-3.22,0-4.9,0,.04-.48.04-.94.11-1.38.83-5.04,1.67-10.08,2.51-15.13,2.33-13.94,4.64-27.88,7.01-41.81.17-.97-.07-1.5-.77-2.11-34.11-29.96-68.21-59.94-102.29-89.93-.66-.58-1.2-.67-2-.35-4.52,1.8-9.06,3.55-13.59,5.32-29.87,11.64-59.73,23.28-89.61,34.88-.95.37-1.33.89-1.52,1.84-.55,2.73-1.21,5.43-1.82,8.15-4.04,17.96-8.08,35.92-12.12,53.88-4.98,22.14-9.97,44.27-14.95,66.41-.21.94-.38,1.89-.6,3,35.05-9.1,69.85-18.13,104.74-27.18,0,.56.04.89,0,1.2-1.24,8.01-2.5,16.02-3.71,24.04-.1.67.01,1.51.35,2.08,14.95,25.68,29.94,51.34,44.95,76.98.42.72,1.07,1.39,1.77,1.83,13.19,8.43,26.4,16.82,39.63,25.2.77.49,1.05.9.85,1.88-2.58,12.33-5.1,24.66-7.64,37-.71,3.45-1.42,6.89-2.17,10.51.63-.18,1.1-.3,1.55-.46,17.71-6.26,35.43-12.51,53.13-18.8.79-.28,1.37-.22,2.06.24,2.99,1.97,6,3.92,9.05,5.79.9.55,1.21,1.16,1.21,2.2-.04,12-.03,24,0,36,0,.94.15,1.91.43,2.81,4.33,13.89,8.68,27.76,13.06,41.64.25.79.21,1.36-.34,2.03-10.98,13.4-21.94,26.82-32.9,40.24Z" fill="#fff"/>
  <path d="m226.75,500c10.96-13.42,21.92-26.84,32.9-40.24.55-.67.59-1.24.34-2.03-4.37-13.87-8.73-27.75-13.06-41.64-.28-.9-.43-1.87-.43-2.81-.03-12-.03-24,0-36,0-1.04-.32-1.65-1.21-2.2-3.05-1.87-6.05-3.82-9.05-5.79-.69-.45-1.28-.52-2.06-.24-17.7,6.28-35.42,12.54-53.13,18.8-.45.16-.92.28-1.55.46.75-3.62,1.46-7.07,2.17-10.51,2.54-12.33,5.06-24.67,7.64-37,.2-.97-.08-1.39-.85-1.88-13.22-8.37-26.43-16.77-39.63-25.2-.7-.45-1.35-1.12-1.77-1.83-15.01-25.65-30-51.31-44.95-76.98-.33-.57-.45-1.41-.35-2.08,1.2-8.02,2.47-16.02,3.71-24.04.05-.32,0-.65,0-1.2-34.89,9.05-69.69,18.09-104.74,27.18.22-1.11.39-2.06.6-3,4.98-22.14,9.97-44.27,14.95-66.41,4.04-17.96,8.08-35.92,12.12-53.88.61-2.72,1.27-5.42,1.82-8.15.19-.95.57-1.47,1.52-1.84,29.88-11.6,59.74-23.24,89.61-34.88,4.53-1.77,9.07-3.52,13.59-5.32.8-.32,1.34-.23,2,.35,34.08,29.99,68.18,59.97,102.29,89.93.7.61.93,1.13.77,2.11-2.37,13.93-4.69,27.87-7.01,41.81-.84,5.04-1.68,10.08-2.51,15.13-.07.44-.08.89-.11,1.38,1.68,0,3.3.06,4.9,0,7.65-.31,15.3-.66,22.96-.98,11.98-.51,23.95-1.01,35.93-1.51,3.66-.15,7.32-.35,10.98-.45.97-.03,1.26-.41,1.41-1.3,1.7-10.51,3.43-21,5.16-31.51,1.45-8.82,2.88-17.64,4.35-26.46.17-1.01.44-2.04.87-2.96,11.45-24.53,22.93-49.05,34.39-73.58.35-.75.82-1.14,1.61-1.36,22.9-6.38,45.79-12.79,68.69-19.15.65-.18,1.51-.11,2.13.18,24.88,11.49,49.75,23.01,74.61,34.54.33.15.66.33,1.15.58-1.45,1.16-2.8,2.25-4.15,3.32-18.92,15.02-37.84,30.04-56.79,45.03-.77.61-.96,1.22-.82,2.12,2.26,14.37,4.49,28.75,6.74,43.13,2.3,14.66,4.61,29.32,6.9,43.98,1.52,9.69,3.05,19.38,4.5,29.09.14.91-.06,2.01-.48,2.83-10.61,21.31-21.26,42.59-31.93,63.86-.35.7-.94,1.38-1.58,1.83-38.33,26.42-76.67,52.81-115.04,79.18-1.01.7-1.41,1.32-1.16,2.59,3.19,16.14,6.31,32.3,9.49,48.45.11.54.5,1.14.94,1.49,16.84,13.15,33.7,26.27,50.56,39.4,2.43,1.89,4.86,3.78,7.29,5.68h-147.25Zm-34.09-175.78c.15-.49.29-.83.36-1.19,2.84-13.8,5.67-27.59,8.5-41.39,3.15-15.39,6.34-30.77,9.43-46.17,1.8-8.96,3.5-17.94,5.11-26.94,1.56-8.71,2.96-17.45,4.42-26.18,1.29-7.7,2.54-15.41,3.85-23.11.14-.84-.02-1.38-.69-1.93-1.35-1.11-2.63-2.3-3.95-3.46-26.2-23.06-52.4-46.11-78.6-69.17-.39-.34-.79-.66-1.3-1.08-.14.67-.26,1.11-.33,1.56-1.2,7.76-2.38,15.53-3.59,23.29-1.62,10.43-3.28,20.86-4.9,31.29-1.54,9.9-3.04,19.8-4.58,29.7-1.55,9.94-3.12,19.87-4.67,29.81-1.57,10.06-3.14,20.13-4.7,30.19-.15.94-.21,1.8.34,2.74,13.56,23.12,27.08,46.26,40.63,69.38.4.68,1.03,1.31,1.7,1.74,8.45,5.4,16.93,10.76,25.41,16.13,2.49,1.58,4.98,3.14,7.57,4.77Zm219.64-255.27c-.51.13-.87.19-1.22.3-14.58,4.46-29.16,8.94-43.76,13.35-1.26.38-2.04.98-2.63,2.16-4.58,9.15-9.23,18.27-13.86,27.39-5.89,11.61-11.79,23.22-17.65,34.84-1.13,2.25-2.37,4.52-3.05,6.92-.77,2.7-.97,5.56-1.43,8.35-1.38,8.41-2.77,16.82-4.15,25.22-1.36,8.28-2.72,16.57-4.09,24.85-.13.78,0,1.36.61,1.99,6.44,6.69,12.83,13.43,19.24,20.14,5.52,5.78,11.04,11.56,16.6,17.32.35.37.98.69,1.47.67,3.24-.1,6.48-.31,9.73-.48,7.36-.39,14.71-.8,22.07-1.18,5.4-.28,10.81-.53,16.21-.81,9.1-.47,18.2-.96,27.3-1.45,2.06-.11,4.13-.24,6.34-.37-9.26-59.82-18.49-119.49-27.74-179.23Zm-213.18,297.08c.78-.25,1.29-.41,1.8-.59,38.59-13.66,77.18-27.33,115.78-41,7.44-2.64,14.89-5.26,22.32-7.94.49-.18,1.12-.72,1.19-1.17.6-4.12,1.07-8.25,1.6-12.37.87-6.85,1.76-13.7,2.63-20.54.79-6.23,1.56-12.46,2.4-18.69.13-1-.2-1.62-.85-2.29-11.84-12.37-23.66-24.74-35.46-37.14-.59-.62-1.19-.92-2.06-.87-5.24.26-10.48.47-15.72.7-7.78.34-15.55.67-23.33,1-7.78.33-15.55.67-23.33,1-5.78.25-11.56.52-17.34.73-.88.03-1.2.32-1.36,1.2-.4,2.29-.94,4.56-1.41,6.84-2.79,13.64-5.56,27.28-8.35,40.91-2.62,12.78-5.27,25.56-7.9,38.35-2.99,14.53-5.96,29.06-8.93,43.6-.55,2.68-1.08,5.35-1.67,8.28ZM20.11,214.65c.65-.15,1.05-.22,1.43-.32,15.68-4.07,31.36-8.15,47.04-12.23,12.79-3.32,25.58-6.64,38.37-9.93.88-.23,1.32-.55,1.42-1.53.21-1.94.6-3.86.9-5.79,1.45-9.37,2.88-18.74,4.33-28.1,1.47-9.45,2.95-18.89,4.43-28.34,1.3-8.34,2.6-16.67,3.9-25.01,1.11-7.1,2.22-14.21,3.32-21.32.07-.42.07-.85.11-1.43-.57.21-.92.34-1.26.47-26.64,10.39-53.28,20.79-79.93,31.16-.84.33-1.24.79-1.43,1.65-1.66,7.5-3.36,15-5.04,22.5-5.05,22.42-10.1,44.83-15.15,67.25-.8,3.56-1.6,7.12-2.46,10.96Zm416.24,48.56c-.67,0-1.13-.02-1.58,0-4.32.23-8.64.48-12.97.7-11.31.59-22.61,1.19-33.92,1.76-8.56.44-17.13.86-25.69,1.27-.84.04-1.14.37-1.24,1.18-1.16,9.45-2.35,18.9-3.55,28.35-1.24,9.78-2.49,19.55-3.72,29.33-.1.82-.4,1.31-1.24,1.61-31.95,11.26-63.89,22.54-95.83,33.82-1.15.41-2.29.84-3.61,1.33.42.32.64.51.88.66,14.33,9.11,28.67,18.21,43,27.34.65.42,1.08.32,1.66-.08,3.59-2.5,7.19-4.97,10.8-7.45,33.71-23.21,67.43-46.41,101.13-69.64.62-.42,1.18-1.06,1.52-1.73,7.9-15.63,15.76-31.28,23.63-46.92.22-.44.42-.89.74-1.55Zm-178.63,222.03h73.41c-.55-.45-.86-.72-1.18-.97-9.01-7-18.03-13.99-27.02-21.02-.48-.37-.95-.99-1.06-1.56-1.98-10.07-3.9-20.15-5.84-30.23-1.69-8.77-3.36-17.55-5.1-26.31-.13-.65-.57-1.42-1.11-1.77-9.18-5.89-18.4-11.72-27.61-17.55-.26-.17-.56-.27-.95-.46-.02.52-.05.89-.05,1.26,0,8.29-.01,16.58.01,24.87,0,.69.15,1.4.36,2.07,4.93,15.79,9.87,31.57,14.84,47.34.26.82.14,1.36-.4,2.01-5.2,6.29-10.37,12.61-15.54,18.93-.89,1.08-1.76,2.17-2.76,3.4ZM471.7,91.49c-14.87-6.66-29.48-13.21-44.38-19.89,2.57,16.48,5.09,32.61,7.65,48.98,12.35-9.78,24.42-19.34,36.74-29.09Z"/>
  <path d="m192.66,324.22c-2.58-1.63-5.08-3.19-7.57-4.77-8.47-5.37-16.95-10.73-25.41-16.13-.67-.43-1.3-1.06-1.7-1.74-13.55-23.12-27.07-46.26-40.63-69.38-.55-.94-.48-1.8-.34-2.74,1.56-10.06,3.13-20.13,4.7-30.19,1.55-9.94,3.13-19.87,4.67-29.81,1.54-9.9,3.04-19.8,4.58-29.7,1.62-10.43,3.27-20.86,4.9-31.29,1.21-7.76,2.39-15.53,3.59-23.29.07-.45.19-.89.33-1.56.51.42.91.74,1.3,1.08,26.2,23.05,52.4,46.11,78.6,69.17,1.31,1.16,2.59,2.35,3.95,3.46.66.54.83,1.08.69,1.93-1.31,7.7-2.56,15.41-3.85,23.11-1.46,8.73-2.86,17.47-4.42,26.18-1.61,9-3.31,17.98-5.11,26.94-3.09,15.4-6.28,30.78-9.43,46.17-2.83,13.8-5.66,27.6-8.5,41.39-.07.35-.21.7-.36,1.19Z" fill="#fff"/>
  <path d="m412.29,68.95c9.25,59.74,18.48,119.41,27.74,179.23-2.21.13-4.27.26-6.34.37-9.1.49-18.2.97-27.3,1.45-5.4.28-10.81.53-16.21.81-7.36.38-14.71.79-22.07,1.18-3.24.17-6.48.37-9.73.48-.49.02-1.12-.31-1.47-.67-5.55-5.75-11.08-11.53-16.6-17.32-6.41-6.72-12.8-13.45-19.24-20.14-.6-.63-.74-1.21-.61-1.99,1.37-8.28,2.73-16.57,4.09-24.85,1.38-8.41,2.77-16.82,4.15-25.22.46-2.79.66-5.65,1.43-8.35.69-2.4,1.92-4.66,3.05-6.92,5.86-11.63,11.76-23.23,17.65-34.84,4.63-9.13,9.27-18.25,13.86-27.39.59-1.18,1.37-1.78,2.63-2.16,14.6-4.41,29.18-8.89,43.76-13.35.35-.11.71-.18,1.22-.3Z" fill="#fff"/>
  <path d="m199.12,366.03c.59-2.92,1.12-5.6,1.67-8.28,2.98-14.53,5.95-29.07,8.93-43.6,2.63-12.78,5.28-25.56,7.9-38.35,2.8-13.64,5.57-27.28,8.35-40.91.47-2.28,1.01-4.55,1.41-6.84.15-.88.47-1.17,1.36-1.2,5.78-.21,11.56-.48,17.34-.73,7.78-.33,15.55-.67,23.33-1,7.78-.33,15.55-.67,23.33-1,5.24-.23,10.48-.44,15.72-.7.87-.04,1.46.25,2.06.87,11.81,12.39,23.63,24.77,35.46,37.14.65.67.98,1.3.85,2.29-.84,6.22-1.6,12.46-2.4,18.69-.87,6.85-1.76,13.7-2.63,20.54-.53,4.13-1,8.26-1.6,12.37-.06.45-.7.99-1.19,1.17-7.43,2.68-14.88,5.3-22.32,7.94-38.59,13.67-77.18,27.33-115.78,41-.51.18-1.02.33-1.8.59Z" fill="#fff"/>
  <path d="m20.11,214.65c.86-3.84,1.66-7.4,2.46-10.96,5.05-22.42,10.1-44.83,15.15-67.25,1.69-7.5,3.38-15,5.04-22.5.19-.86.6-1.32,1.43-1.65,26.65-10.37,53.29-20.77,79.93-31.16.34-.13.69-.26,1.26-.47-.04.58-.05,1.01-.11,1.43-1.1,7.11-2.21,14.21-3.32,21.32-1.3,8.34-2.6,16.67-3.9,25.01-1.48,9.45-2.96,18.89-4.43,28.34-1.45,9.37-2.89,18.73-4.33,28.1-.3,1.93-.69,3.85-.9,5.79-.11.98-.54,1.3-1.42,1.53-12.8,3.29-25.59,6.61-38.37,9.93-15.68,4.07-31.36,8.15-47.04,12.23-.39.1-.78.18-1.43.32Z" fill="#fff"/>
  <path d="m436.35,263.21c-.31.66-.52,1.11-.74,1.55-7.87,15.64-15.73,31.29-23.63,46.92-.34.67-.9,1.31-1.52,1.73-33.7,23.23-67.41,46.43-101.13,69.64-3.6,2.48-7.21,4.95-10.8,7.45-.58.4-1,.5-1.66.08-14.32-9.13-28.66-18.23-43-27.34-.24-.15-.45-.34-.88-.66,1.32-.49,2.46-.93,3.61-1.33,31.94-11.28,63.88-22.56,95.83-33.82.85-.3,1.14-.79,1.24-1.61,1.23-9.78,2.48-19.55,3.72-29.33,1.19-9.45,2.38-18.9,3.55-28.35.1-.82.4-1.14,1.24-1.18,8.56-.4,17.13-.83,25.69-1.27,11.31-.58,22.61-1.17,33.92-1.76,4.32-.23,8.64-.47,12.97-.7.45-.02.91,0,1.58,0Z" fill="#fff"/>
  <path d="m257.72,485.23c1-1.24,1.88-2.32,2.76-3.4,5.17-6.31,10.34-12.63,15.54-18.93.54-.65.66-1.19.4-2.01-4.97-15.77-9.91-31.56-14.84-47.34-.21-.66-.36-1.38-.36-2.07-.02-8.29-.02-16.58-.01-24.87,0-.37.03-.74.05-1.26.39.19.69.29.95.46,9.21,5.84,18.43,11.67,27.61,17.55.54.34.98,1.12,1.11,1.77,1.74,8.76,3.42,17.54,5.1,26.31,1.94,10.08,3.86,20.16,5.84,30.23.11.57.58,1.19,1.06,1.56,8.99,7.03,18.01,14.02,27.02,21.02.32.25.63.52,1.18.97h-73.41Z" fill="#fff"/>
  <path d="m471.7,91.49c-12.31,9.75-24.39,19.31-36.74,29.09-2.56-16.37-5.07-32.5-7.65-48.98,14.91,6.68,29.51,13.22,44.38,19.89Z" fill="#fff"/>
</svg>